<?xml version="1.0" encoding="UTF-8"?>
<svg xmlns="http://www.w3.org/2000/svg"
     viewBox="0 0 1036.8 475.2"
     width="1036.8" height="475.2"
     role="img" aria-labelledby="diagram-title diagram-desc"
     style="font-family: 'Noto Sans CJK JP', 'Hiragino Sans', 'Yu Gothic', 'sans-serif';">
  <title id="diagram-title">データパイプライン（IPO図）</title>
  <desc id="diagram-desc">入力→処理→出力の構造</desc>
  <defs>
    <filter id="shadow" x="-5%" y="-5%" width="115%" height="115%">
      <feDropShadow dx="2" dy="2" stdDeviation="3" flood-color="#D5D8DC" flood-opacity="0.4"/>
    </filter>
    <marker id="arrowhead" markerWidth="10" markerHeight="10"
            refX="8" refY="5" orient="auto-start-reverse">
      <polygon points="0 0, 10 5, 0 10" fill="#636E72"/>
    </marker>
  </defs>
  <rect width="1036.8" height="475.2" fill="#F5F7FA" rx="0"/>
  <text x="518.4" y="76.8" text-anchor="middle" font-size="28px" font-weight="bold" fill="#2D3436" dominant-baseline="central">データパイプライン（IPO図）</text>
  <text x="518.4" y="116.39999999999999" text-anchor="middle" font-size="18px"  fill="#636E72" dominant-baseline="central">入力→処理→出力の構造</text>
  <path d="M 187.2 209.2 L 211.2 209.2 Q 219.2 209.2 219.2 217.2 L 219.2 238.2 Q 219.2 246.2 227.2 246.2 L 251.2 246.2" fill="none" stroke="#636E72" stroke-width="2" marker-end="url(#arrowhead)"/>
  <path d="M 183.6 283.2 L 209.4 283.2 Q 217.4 283.2 217.4 275.2 L 217.4 254.2 Q 217.4 246.2 225.4 246.2 L 251.2 246.2" fill="none" stroke="#636E72" stroke-width="2" marker-end="url(#arrowhead)"/>
  <line x1="405.6" y1="246.2" x2="469.6" y2="246.2" stroke="#636E72" stroke-width="2" marker-end="url(#arrowhead)"/>
  <line x1="608.8" y1="246.2" x2="672.8" y2="246.2" stroke="#636E72" stroke-width="2" marker-end="url(#arrowhead)"/>
  <path d="M 781.6 246.2 L 805.6 246.2 Q 813.6 246.2 813.6 238.2 L 813.6 217.2 Q 813.6 209.2 821.6 209.2 L 845.6 209.2" fill="none" stroke="#636E72" stroke-width="2" marker-end="url(#arrowhead)"/>
  <path d="M 781.6 246.2 L 808.4 246.2 Q 816.4 246.2 816.4 254.2 L 816.4 275.2 Q 816.4 283.2 824.4 283.2 L 851.2 283.2" fill="none" stroke="#636E72" stroke-width="2" marker-end="url(#arrowhead)"/>
  <ellipse cx="123.6" cy="209.2" rx="63.6" ry="22.0" fill="#00B894" filter="url(#shadow)"/>
  <text x="123.6" y="209.2" text-anchor="middle" font-size="16px" font-weight="bold" fill="#FFFFFF" dominant-baseline="central">CSVファイル</text>
  <ellipse cx="123.6" cy="283.2" rx="60.0" ry="22.0" fill="#00B894" filter="url(#shadow)"/>
  <text x="123.6" y="283.2" text-anchor="middle" font-size="16px" font-weight="bold" fill="#FFFFFF" dominant-baseline="central">APIデータ</text>
  <rect x="251.2" y="195.2" width="154.4" height="102" rx="8" fill="#EBF5FB" stroke="#74B9FF" stroke-width="2" filter="url(#shadow)"/>
  <text x="328.4" y="219.2" text-anchor="middle" font-size="16px" font-weight="bold" fill="#2D3436" dominant-baseline="central">バリデーション</text>
  <text x="328.4" y="248.2" text-anchor="middle" font-size="14px"  fill="#2D3436" dominant-baseline="central">スキーマ検証</text>
  <text x="328.4" y="270.2" text-anchor="middle" font-size="14px"  fill="#2D3436" dominant-baseline="central">NULL除去</text>
  <rect x="469.6" y="195.2" width="139.2" height="102" rx="8" fill="#E8F8F5" stroke="#00B894" stroke-width="2" filter="url(#shadow)"/>
  <text x="539.2" y="219.2" text-anchor="middle" font-size="16px" font-weight="bold" fill="#2D3436" dominant-baseline="central">変換・正規化</text>
  <text x="539.2" y="248.2" text-anchor="middle" font-size="14px"  fill="#2D3436" dominant-baseline="central">日付統一</text>
  <text x="539.2" y="270.2" text-anchor="middle" font-size="14px"  fill="#2D3436" dominant-baseline="central">コード変換</text>
  <rect x="672.8" y="195.2" width="108.8" height="102" rx="8" fill="#FEF9E7" stroke="#FDCB6E" stroke-width="2" filter="url(#shadow)"/>
  <text x="727.1999999999999" y="219.2" text-anchor="middle" font-size="16px" font-weight="bold" fill="#2D3436" dominant-baseline="central">集計処理</text>
  <text x="727.1999999999999" y="248.2" text-anchor="middle" font-size="14px"  fill="#2D3436" dominant-baseline="central">日次集計</text>
  <text x="727.1999999999999" y="270.2" text-anchor="middle" font-size="14px"  fill="#2D3436" dominant-baseline="central">KPI算出</text>
  <ellipse cx="911.2" cy="209.2" rx="65.6" ry="22.0" fill="#FF7675" filter="url(#shadow)"/>
  <text x="911.2" y="209.2" text-anchor="middle" font-size="16px" font-weight="bold" fill="#FFFFFF" dominant-baseline="central">レポート出力</text>
  <ellipse cx="911.2" cy="283.2" rx="60.0" ry="22.0" fill="#FF7675" filter="url(#shadow)"/>
  <text x="911.2" y="283.2" text-anchor="middle" font-size="16px" font-weight="bold" fill="#FFFFFF" dominant-baseline="central">DWH格納</text>
  <rect x="60" y="365.2" width="916.8" height="50" rx="8" fill="#E8F8F5" stroke="#00B894" stroke-width="2"/>
  <text x="518.4" y="390.2" text-anchor="middle" font-size="14px"  fill="#2D3436" dominant-baseline="central">✦ 毎日AM3:00にバッチ実行（所要時間: 約15分）</text>
</svg>