<?xml version="1.0" encoding="UTF-8"?>
<svg xmlns="http://www.w3.org/2000/svg"
     viewBox="0 0 1151.1 511.2"
     width="1151.1" height="511.2"
     role="img" aria-labelledby="diagram-title diagram-desc"
     style="font-family: 'Noto Sans CJK JP', 'Hiragino Sans', 'Yu Gothic', 'sans-serif';">
  <title id="diagram-title">注文ステータス 状態遷移図</title>
  <desc id="diagram-desc">ECサイトの注文ライフサイクル</desc>
  <defs>
    <filter id="shadow" x="-5%" y="-5%" width="115%" height="115%">
      <feDropShadow dx="2" dy="2" stdDeviation="3" flood-color="#D5D8DC" flood-opacity="0.4"/>
    </filter>
    <marker id="arrowhead" markerWidth="10" markerHeight="10"
            refX="8" refY="5" orient="auto-start-reverse">
      <polygon points="0 0, 10 5, 0 10" fill="#636E72"/>
    </marker>
  </defs>
  <rect width="1151.1" height="511.2" fill="#F5F7FA" rx="0"/>
  <text x="575.55" y="76.8" text-anchor="middle" font-size="28px" font-weight="bold" fill="#2D3436" dominant-baseline="central">注文ステータス 状態遷移図</text>
  <text x="575.55" y="116.39999999999999" text-anchor="middle" font-size="18px"  fill="#636E72" dominant-baseline="central">ECサイトの注文ライフサイクル</text>
  <line x1="180.0" y1="264.2" x2="244.0" y2="264.2" stroke="#636E72" stroke-width="2" marker-end="url(#arrowhead)"/>
  <text x="212.0" y="254.2" text-anchor="middle" font-size="12px"  fill="#95A5A6" dominant-baseline="central">注文確定</text>
  <line x1="352.8" y1="264.2" x2="416.8" y2="264.2" stroke="#636E72" stroke-width="2" marker-end="url(#arrowhead)"/>
  <text x="384.79999999999995" y="254.2" text-anchor="middle" font-size="12px"  fill="#95A5A6" dominant-baseline="central">決済成功</text>
  <path d="M 352.8 264.2 L 468.0 264.2 Q 476.0 264.2 476.0 272.2 L 476.0 311.2 Q 476.0 319.2 484.0 319.2 L 599.2 319.2" fill="none" stroke="#636E72" stroke-width="2" marker-end="url(#arrowhead)"/>
  <text x="475.99999999999994" y="281.7" text-anchor="middle" font-size="12px"  fill="#95A5A6" dominant-baseline="central">取消</text>
  <path d="M 531.3 264.2 L 555.3 264.2 Q 563.3 264.2 563.3 256.2 L 563.3 235.2 Q 563.3 227.2 571.3 227.2 L 595.3 227.2" fill="none" stroke="#636E72" stroke-width="2" marker-end="url(#arrowhead)"/>
  <text x="563.3" y="235.7" text-anchor="middle" font-size="12px"  fill="#95A5A6" dominant-baseline="central">出荷</text>
  <path d="M 531.3 264.2 L 557.2 264.2 Q 565.2 264.2 565.2 272.2 L 565.2 311.2 Q 565.2 319.2 573.2 319.2 L 599.2 319.2" fill="none" stroke="#636E72" stroke-width="2" marker-end="url(#arrowhead)"/>
  <text x="565.25" y="281.7" text-anchor="middle" font-size="12px"  fill="#95A5A6" dominant-baseline="central">返金</text>
  <path d="M 723.1 227.2 L 747.1 227.2 Q 755.1 227.2 755.1 235.2 L 755.1 256.2 Q 755.1 264.2 763.1 264.2 L 787.1 264.2" fill="none" stroke="#636E72" stroke-width="2" marker-end="url(#arrowhead)"/>
  <text x="755.0999999999999" y="235.7" text-anchor="middle" font-size="12px"  fill="#95A5A6" dominant-baseline="central">受取</text>
  <line x1="907.1" y1="264.2" x2="971.1" y2="264.2" stroke="#636E72" stroke-width="2" marker-end="url(#arrowhead)"/>
  <text x="939.0999999999999" y="254.2" text-anchor="middle" font-size="12px"  fill="#95A5A6" dominant-baseline="central">返品申請</text>
  <ellipse cx="120.0" cy="264.2" rx="60.0" ry="22.0" fill="#00B894" filter="url(#shadow)"/>
  <text x="120.0" y="264.2" text-anchor="middle" font-size="16px" font-weight="bold" fill="#FFFFFF" dominant-baseline="central">カート</text>
  <rect x="243.99999999999997" y="224.2" width="108.8" height="80" rx="8" fill="#EBF5FB" stroke="#74B9FF" stroke-width="2" filter="url(#shadow)"/>
  <text x="298.4" y="248.2" text-anchor="middle" font-size="16px" font-weight="bold" fill="#2D3436" dominant-baseline="central">注文確定</text>
  <text x="298.4" y="277.2" text-anchor="middle" font-size="14px"  fill="#2D3436" dominant-baseline="central">決済待ち</text>
  <rect x="416.8" y="224.2" width="114.5" height="80" rx="8" fill="#E8F8F5" stroke="#00B894" stroke-width="2" filter="url(#shadow)"/>
  <text x="474.05" y="248.2" text-anchor="middle" font-size="16px" font-weight="bold" fill="#2D3436" dominant-baseline="central">決済完了</text>
  <text x="474.05" y="277.2" text-anchor="middle" font-size="14px"  fill="#2D3436" dominant-baseline="central">入金確認済</text>
  <rect x="595.3" y="187.2" width="127.8" height="80" rx="8" fill="#FEF9E7" stroke="#FDCB6E" stroke-width="2" filter="url(#shadow)"/>
  <text x="659.1999999999999" y="211.2" text-anchor="middle" font-size="16px" font-weight="bold" fill="#2D3436" dominant-baseline="central">発送済</text>
  <text x="659.1999999999999" y="240.2" text-anchor="middle" font-size="14px"  fill="#2D3436" dominant-baseline="central">追跡番号発行</text>
  <ellipse cx="847.1" cy="264.2" rx="60.0" ry="22.0" fill="#FF7675" filter="url(#shadow)"/>
  <text x="847.1" y="264.2" text-anchor="middle" font-size="16px" font-weight="bold" fill="#FFFFFF" dominant-baseline="central">配達完了</text>
  <ellipse cx="659.2" cy="319.2" rx="60.0" ry="22.0" fill="#FF7675" filter="url(#shadow)"/>
  <text x="659.2" y="319.2" text-anchor="middle" font-size="16px" font-weight="bold" fill="#FFFFFF" dominant-baseline="central">キャンセル</text>
  <ellipse cx="1031.1" cy="264.2" rx="60.0" ry="22.0" fill="#FF7675" filter="url(#shadow)"/>
  <text x="1031.1" y="264.2" text-anchor="middle" font-size="16px" font-weight="bold" fill="#FFFFFF" dominant-baseline="central">返品</text>
  <rect x="60" y="401.2" width="1031.1" height="50" rx="8" fill="#E8F8F5" stroke="#00B894" stroke-width="2"/>
  <text x="575.55" y="426.2" text-anchor="middle" font-size="14px"  fill="#2D3436" dominant-baseline="central">✦ キャンセルは発送前まで可能、返品は配達後7日以内</text>
</svg>