<?xml version="1.0" encoding="UTF-8"?>
<svg xmlns="http://www.w3.org/2000/svg"
     viewBox="0 0 1100 654.2"
     width="1100" height="654.2"
     role="img" aria-labelledby="diagram-title diagram-desc"
     style="font-family: 'Noto Sans CJK JP', 'Hiragino Sans', 'Yu Gothic', 'sans-serif';">
  <title id="diagram-title">オンライン注文 サービスブループリント</title>
  <desc id="diagram-desc">フロント/バック/サポートの対応関係</desc>
  <defs>
    <filter id="shadow" x="-5%" y="-5%" width="115%" height="115%">
      <feDropShadow dx="2" dy="2" stdDeviation="3" flood-color="#D5D8DC" flood-opacity="0.4"/>
    </filter>
    <marker id="arrowhead" markerWidth="10" markerHeight="10"
            refX="8" refY="5" orient="auto-start-reverse">
      <polygon points="0 0, 10 5, 0 10" fill="#636E72"/>
    </marker>
  </defs>
  <rect width="1100" height="654.2" fill="#F5F7FA" rx="0"/>
  <text x="550.0" y="76.8" text-anchor="middle" font-size="28px" font-weight="bold" fill="#2D3436" dominant-baseline="central">オンライン注文 サービスブループリント</text>
  <text x="550.0" y="116.39999999999999" text-anchor="middle" font-size="18px"  fill="#636E72" dominant-baseline="central">フロント/バック/サポートの対応関係</text>
  <rect x="212.60000000000002" y="195.2" width="142.79999999999998" height="40" rx="20" fill="#74B9FF"/>
  <text x="284.0" y="215.2" text-anchor="middle" font-size="20px" font-weight="bold" fill="#FFFFFF" dominant-baseline="central">検索</text>
  <rect x="380.6" y="195.2" width="142.79999999999998" height="40" rx="20" fill="#00B894"/>
  <text x="452.0" y="215.2" text-anchor="middle" font-size="20px" font-weight="bold" fill="#FFFFFF" dominant-baseline="central">商品選択</text>
  <rect x="548.6" y="195.2" width="142.79999999999998" height="40" rx="20" fill="#FDCB6E"/>
  <text x="620.0" y="215.2" text-anchor="middle" font-size="20px" font-weight="bold" fill="#FFFFFF" dominant-baseline="central">決済</text>
  <rect x="716.6" y="195.2" width="142.79999999999998" height="40" rx="20" fill="#FF7675"/>
  <text x="788.0" y="215.2" text-anchor="middle" font-size="20px" font-weight="bold" fill="#FFFFFF" dominant-baseline="central">配送</text>
  <rect x="884.6" y="195.2" width="142.79999999999998" height="40" rx="20" fill="#A29BFE"/>
  <text x="956.0" y="215.2" text-anchor="middle" font-size="20px" font-weight="bold" fill="#FFFFFF" dominant-baseline="central">サポート</text>
  <rect x="60" y="243.2" width="980" height="55" rx="0" fill="#FFFFFF"/>
  <line x1="60" y1="243.2" x2="1040" y2="243.2" stroke="#D5D8DC" stroke-width="1" stroke-dasharray="6,3"/>
  <rect x="60" y="243.2" width="5" height="55" rx="0" fill="#74B9FF"/>
  <text x="135.0" y="270.7" text-anchor="middle" font-size="16px" font-weight="bold" fill="#2D3436" dominant-baseline="central">顧客行動</text>
  <text x="220.0" y="270.2" text-anchor="start" font-size="14px"  fill="#2D3436" dominant-baseline="central">キーワード検索</text>
  <text x="388.0" y="270.2" text-anchor="start" font-size="14px"  fill="#2D3436" dominant-baseline="central">商品詳細を閲覧</text>
  <text x="556.0" y="270.2" text-anchor="start" font-size="14px"  fill="#2D3436" dominant-baseline="central">カート決済</text>
  <text x="724.0" y="270.2" text-anchor="start" font-size="14px"  fill="#2D3436" dominant-baseline="central">配送状況確認</text>
  <text x="892.0" y="270.2" text-anchor="start" font-size="14px"  fill="#2D3436" dominant-baseline="central">問い合わせ</text>
  <rect x="60" y="298.2" width="980" height="55" rx="0" fill="#FAFBFC"/>
  <line x1="60" y1="298.2" x2="1040" y2="298.2" stroke="#D5D8DC" stroke-width="1" stroke-dasharray="6,3"/>
  <rect x="60" y="298.2" width="5" height="55" rx="0" fill="#00B894"/>
  <text x="135.0" y="325.7" text-anchor="middle" font-size="16px" font-weight="bold" fill="#2D3436" dominant-baseline="central">フロントステージ</text>
  <text x="220.0" y="325.2" text-anchor="start" font-size="14px"  fill="#2D3436" dominant-baseline="central">検索UI表示</text>
  <text x="388.0" y="325.2" text-anchor="start" font-size="14px"  fill="#2D3436" dominant-baseline="central">商品ページ表示</text>
  <text x="556.0" y="325.2" text-anchor="start" font-size="14px"  fill="#2D3436" dominant-baseline="central">決済フォーム</text>
  <text x="724.0" y="325.2" text-anchor="start" font-size="14px"  fill="#2D3436" dominant-baseline="central">追跡ページ</text>
  <text x="892.0" y="325.2" text-anchor="start" font-size="14px"  fill="#2D3436" dominant-baseline="central">チャットbot</text>
  <rect x="60" y="353.2" width="980" height="76" rx="0" fill="#FFFFFF"/>
  <line x1="60" y1="353.2" x2="1040" y2="353.2" stroke="#D5D8DC" stroke-width="1" stroke-dasharray="6,3"/>
  <rect x="60" y="353.2" width="5" height="76" rx="0" fill="#FDCB6E"/>
  <text x="135.0" y="391.2" text-anchor="middle" font-size="16px" font-weight="bold" fill="#2D3436" dominant-baseline="central">バックステージ</text>
  <text x="220.0" y="380.2" text-anchor="start" font-size="14px"  fill="#2D3436" dominant-baseline="central">Elasticsear</text>
  <text x="220.0" y="402.2" text-anchor="start" font-size="14px"  fill="#2D3436" dominant-baseline="central">ch</text>
  <text x="388.0" y="380.2" text-anchor="start" font-size="14px"  fill="#2D3436" dominant-baseline="central">CDN画像配信</text>
  <text x="556.0" y="380.2" text-anchor="start" font-size="14px"  fill="#2D3436" dominant-baseline="central">決済API処理</text>
  <text x="724.0" y="380.2" text-anchor="start" font-size="14px"  fill="#2D3436" dominant-baseline="central">WMS出荷指示</text>
  <text x="892.0" y="380.2" text-anchor="start" font-size="14px"  fill="#2D3436" dominant-baseline="central">チケット管理</text>
  <rect x="60" y="429.2" width="980" height="55" rx="0" fill="#FAFBFC"/>
  <line x1="60" y1="429.2" x2="1040" y2="429.2" stroke="#D5D8DC" stroke-width="1" stroke-dasharray="6,3"/>
  <rect x="60" y="429.2" width="5" height="55" rx="0" fill="#FF7675"/>
  <text x="135.0" y="456.7" text-anchor="middle" font-size="16px" font-weight="bold" fill="#2D3436" dominant-baseline="central">サポートプロセス</text>
  <text x="220.0" y="456.2" text-anchor="start" font-size="14px"  fill="#2D3436" dominant-baseline="central">商品DB更新</text>
  <text x="388.0" y="456.2" text-anchor="start" font-size="14px"  fill="#2D3436" dominant-baseline="central">在庫同期</text>
  <text x="556.0" y="456.2" text-anchor="start" font-size="14px"  fill="#2D3436" dominant-baseline="central">不正検知</text>
  <text x="724.0" y="456.2" text-anchor="start" font-size="14px"  fill="#2D3436" dominant-baseline="central">配送業者連携</text>
  <text x="892.0" y="456.2" text-anchor="start" font-size="14px"  fill="#2D3436" dominant-baseline="central">FAQ更新</text>
  <line x1="60" y1="484.2" x2="1040" y2="484.2" stroke="#D5D8DC" stroke-width="1" stroke-dasharray="6,3"/>
  <line x1="368.0" y1="243.2" x2="368.0" y2="484.2" stroke="#D5D8DC" stroke-width="1" stroke-dasharray="4,4" opacity="0.5"/>
  <line x1="536.0" y1="243.2" x2="536.0" y2="484.2" stroke="#D5D8DC" stroke-width="1" stroke-dasharray="4,4" opacity="0.5"/>
  <line x1="704.0" y1="243.2" x2="704.0" y2="484.2" stroke="#D5D8DC" stroke-width="1" stroke-dasharray="4,4" opacity="0.5"/>
  <line x1="872.0" y1="243.2" x2="872.0" y2="484.2" stroke="#D5D8DC" stroke-width="1" stroke-dasharray="4,4" opacity="0.5"/>
  <rect x="60" y="544.2" width="980" height="50" rx="8" fill="#E8F8F5" stroke="#00B894" stroke-width="2"/>
  <text x="550.0" y="569.2" text-anchor="middle" font-size="14px"  fill="#2D3436" dominant-baseline="central">✦ 可視線（顧客→フロント）と内部相互作用線（フロント→バック）で責務を分離</text>
</svg>