<?xml version="1.0" encoding="UTF-8"?>
<svg xmlns="http://www.w3.org/2000/svg"
     viewBox="0 0 1379.5 667.2"
     width="1379.5" height="667.2"
     role="img" aria-labelledby="diagram-title diagram-desc"
     style="font-family: 'Noto Sans CJK JP', 'Hiragino Sans', 'Yu Gothic', 'sans-serif';">
  <title id="diagram-title">デジタルマーケティング タクソノミー</title>
  <desc id="diagram-desc">概念と包含関係の定義</desc>
  <defs>
    <filter id="shadow" x="-5%" y="-5%" width="115%" height="115%">
      <feDropShadow dx="2" dy="2" stdDeviation="3" flood-color="#D5D8DC" flood-opacity="0.4"/>
    </filter>
    <marker id="arrowhead" markerWidth="10" markerHeight="10"
            refX="8" refY="5" orient="auto-start-reverse">
      <polygon points="0 0, 10 5, 0 10" fill="#636E72"/>
    </marker>
  </defs>
  <rect width="1379.5" height="667.2" fill="#F5F7FA" rx="0"/>
  <text x="689.75" y="76.8" text-anchor="middle" font-size="28px" font-weight="bold" fill="#2D3436" dominant-baseline="central">デジタルマーケティング タクソノミー</text>
  <text x="689.75" y="116.39999999999999" text-anchor="middle" font-size="18px"  fill="#636E72" dominant-baseline="central">概念と包含関係の定義</text>
  <path d="M 689.8 235.2 L 689.8 255.2 Q 689.8 263.2 681.8 263.2 L 279.7 263.2 Q 271.7 263.2 271.7 271.2 L 271.7 291.2" fill="none" stroke="#74B9FF" stroke-width="2" opacity="0.5"/>
  <path d="M 271.7 339.2 L 271.7 359.2 Q 271.7 367.2 263.7 367.2 L 131.9 367.2 Q 123.9 367.2 123.9 375.2 L 123.9 395.2" fill="none" stroke="#74B9FF" stroke-width="2" opacity="0.5"/>
  <path d="M 271.7 339.2 L 271.7 360.5 Q 271.7 367.2 278.4 367.2 L 278.4 367.2 Q 285.0 367.2 285.0 373.9 L 285.0 395.2" fill="none" stroke="#74B9FF" stroke-width="2" opacity="0.5"/>
  <path d="M 271.7 339.2 L 271.7 359.2 Q 271.7 367.2 279.7 367.2 L 424.8 367.2 Q 432.8 367.2 432.8 375.2 L 432.8 395.2" fill="none" stroke="#74B9FF" stroke-width="2" opacity="0.5"/>
  <path d="M 689.8 235.2 L 689.8 255.2 Q 689.8 263.2 697.8 263.2 L 702.3 263.2 Q 710.3 263.2 710.3 271.2 L 710.3 291.2" fill="none" stroke="#00B894" stroke-width="2" opacity="0.5"/>
  <path d="M 710.3 339.2 L 710.3 359.2 Q 710.3 367.2 702.3 367.2 L 573.9 367.2 Q 565.9 367.2 565.9 375.2 L 565.9 395.2" fill="none" stroke="#00B894" stroke-width="2" opacity="0.5"/>
  <path d="M 710.3 339.2 L 710.3 363.7 Q 710.3 367.2 706.8 367.2 L 706.8 367.2 Q 703.2 367.2 703.2 370.7 L 703.2 395.2" fill="none" stroke="#00B894" stroke-width="2" opacity="0.5"/>
  <path d="M 710.3 339.2 L 710.3 359.2 Q 710.3 367.2 718.3 367.2 L 839.6 367.2 Q 847.6 367.2 847.6 375.2 L 847.6 395.2" fill="none" stroke="#00B894" stroke-width="2" opacity="0.5"/>
  <path d="M 689.8 235.2 L 689.8 255.2 Q 689.8 263.2 697.8 263.2 L 1120.3 263.2 Q 1128.3 263.2 1128.3 271.2 L 1128.3 291.2" fill="none" stroke="#FDCB6E" stroke-width="2" opacity="0.5"/>
  <path d="M 1128.3 339.2 L 1128.3 359.2 Q 1128.3 367.2 1120.3 367.2 L 995.2 367.2 Q 987.2 367.2 987.2 375.2 L 987.2 395.2" fill="none" stroke="#FDCB6E" stroke-width="2" opacity="0.5"/>
  <line x1="1128.3" y1="339.2" x2="1127.8" y2="395.2" stroke="#FDCB6E" stroke-width="2" opacity="0.5"/>
  <path d="M 1128.3 339.2 L 1128.3 359.2 Q 1128.3 367.2 1136.3 367.2 L 1260.9 367.2 Q 1268.9 367.2 1268.9 375.2 L 1268.9 395.2" fill="none" stroke="#FDCB6E" stroke-width="2" opacity="0.5"/>
  <rect x="582.15" y="187.2" width="215.2" height="48" rx="8" fill="#2D3436" filter="url(#shadow)"/>
  <text x="689.8" y="211.2" text-anchor="middle" font-size="16px" font-weight="bold" fill="#FFFFFF" dominant-baseline="central">デジタルマーケティング</text>
  <rect x="186.89999999999998" y="291.2" width="169.60000000000002" height="48" rx="8" fill="#EBF5FB" stroke="#74B9FF" stroke-width="2" filter="url(#shadow)"/>
  <text x="271.7" y="315.2" text-anchor="middle" font-size="16px" font-weight="bold" fill="#2D3436" dominant-baseline="central">オウンドメディア</text>
  <rect x="60.00000000000001" y="395.2" width="127.8" height="102" rx="8" fill="#EBF5FB" stroke="#74B9FF" stroke-width="2" filter="url(#shadow)"/>
  <text x="123.9" y="419.2" text-anchor="middle" font-size="16px" font-weight="bold" fill="#2D3436" dominant-baseline="central">Webサイト</text>
  <text x="123.9" y="448.2" text-anchor="middle" font-size="14px"  fill="#2D3436" dominant-baseline="central">コーポレート</text>
  <text x="123.9" y="470.2" text-anchor="middle" font-size="14px"  fill="#2D3436" dominant-baseline="central">LP</text>
  <rect x="207.8" y="395.2" width="154.39999999999998" height="102" rx="8" fill="#EBF5FB" stroke="#74B9FF" stroke-width="2" filter="url(#shadow)"/>
  <text x="285.0" y="419.2" text-anchor="middle" font-size="16px" font-weight="bold" fill="#2D3436" dominant-baseline="central">ブログ/記事</text>
  <text x="285.0" y="448.2" text-anchor="middle" font-size="14px"  fill="#2D3436" dominant-baseline="central">SEO記事</text>
  <text x="285.0" y="470.2" text-anchor="middle" font-size="14px"  fill="#2D3436" dominant-baseline="central">ホワイトペーパー</text>
  <rect x="382.19999999999993" y="395.2" width="101.19999999999999" height="102" rx="8" fill="#EBF5FB" stroke="#74B9FF" stroke-width="2" filter="url(#shadow)"/>
  <text x="432.79999999999995" y="419.2" text-anchor="middle" font-size="16px" font-weight="bold" fill="#2D3436" dominant-baseline="central">メール</text>
  <text x="432.79999999999995" y="448.2" text-anchor="middle" font-size="14px"  fill="#2D3436" dominant-baseline="central">メルマガ</text>
  <text x="432.79999999999995" y="470.2" text-anchor="middle" font-size="14px"  fill="#2D3436" dominant-baseline="central">MA配信</text>
  <rect x="633.0999999999999" y="291.2" width="154.4" height="48" rx="8" fill="#E8F8F5" stroke="#00B894" stroke-width="2" filter="url(#shadow)"/>
  <text x="710.3" y="315.2" text-anchor="middle" font-size="16px" font-weight="bold" fill="#2D3436" dominant-baseline="central">ペイドメディア</text>
  <rect x="503.4" y="395.2" width="125.00000000000001" height="102" rx="8" fill="#E8F8F5" stroke="#00B894" stroke-width="2" filter="url(#shadow)"/>
  <text x="565.9" y="419.2" text-anchor="middle" font-size="16px" font-weight="bold" fill="#2D3436" dominant-baseline="central">検索広告</text>
  <text x="565.9" y="448.2" text-anchor="middle" font-size="14px"  fill="#2D3436" dominant-baseline="central">Google Ads</text>
  <text x="565.9" y="470.2" text-anchor="middle" font-size="14px"  fill="#2D3436" dominant-baseline="central">Yahoo!広告</text>
  <rect x="648.4000000000001" y="395.2" width="109.60000000000002" height="102" rx="8" fill="#E8F8F5" stroke="#00B894" stroke-width="2" filter="url(#shadow)"/>
  <text x="703.2" y="419.2" text-anchor="middle" font-size="16px" font-weight="bold" fill="#2D3436" dominant-baseline="central">SNS広告</text>
  <text x="703.2" y="448.2" text-anchor="middle" font-size="14px"  fill="#2D3436" dominant-baseline="central">Meta Ads</text>
  <text x="703.2" y="470.2" text-anchor="middle" font-size="14px"  fill="#2D3436" dominant-baseline="central">X Ads</text>
  <rect x="778.0" y="395.2" width="139.2" height="102" rx="8" fill="#E8F8F5" stroke="#00B894" stroke-width="2" filter="url(#shadow)"/>
  <text x="847.6" y="419.2" text-anchor="middle" font-size="16px" font-weight="bold" fill="#2D3436" dominant-baseline="central">ディスプレイ</text>
  <text x="847.6" y="448.2" text-anchor="middle" font-size="14px"  fill="#2D3436" dominant-baseline="central">GDN</text>
  <text x="847.6" y="470.2" text-anchor="middle" font-size="14px"  fill="#2D3436" dominant-baseline="central">DSP</text>
  <rect x="1043.55" y="291.2" width="169.60000000000002" height="48" rx="8" fill="#FEF9E7" stroke="#FDCB6E" stroke-width="2" filter="url(#shadow)"/>
  <text x="1128.35" y="315.2" text-anchor="middle" font-size="16px" font-weight="bold" fill="#2D3436" dominant-baseline="central">アーンドメディア</text>
  <rect x="937.1999999999999" y="395.2" width="100" height="102" rx="8" fill="#FEF9E7" stroke="#FDCB6E" stroke-width="2" filter="url(#shadow)"/>
  <text x="987.1999999999999" y="419.2" text-anchor="middle" font-size="16px" font-weight="bold" fill="#2D3436" dominant-baseline="central">SNS</text>
  <text x="987.1999999999999" y="448.2" text-anchor="middle" font-size="14px"  fill="#2D3436" dominant-baseline="central">UGC</text>
  <text x="987.1999999999999" y="470.2" text-anchor="middle" font-size="14px"  fill="#2D3436" dominant-baseline="central">シェア</text>
  <rect x="1057.2" y="395.2" width="141.1" height="102" rx="8" fill="#FEF9E7" stroke="#FDCB6E" stroke-width="2" filter="url(#shadow)"/>
  <text x="1127.75" y="419.2" text-anchor="middle" font-size="16px" font-weight="bold" fill="#2D3436" dominant-baseline="central">PR</text>
  <text x="1127.75" y="448.2" text-anchor="middle" font-size="14px"  fill="#2D3436" dominant-baseline="central">プレスリリース</text>
  <text x="1127.75" y="470.2" text-anchor="middle" font-size="14px"  fill="#2D3436" dominant-baseline="central">メディア掲載</text>
  <rect x="1218.3" y="395.2" width="101.19999999999999" height="102" rx="8" fill="#FEF9E7" stroke="#FDCB6E" stroke-width="2" filter="url(#shadow)"/>
  <text x="1268.8999999999999" y="419.2" text-anchor="middle" font-size="16px" font-weight="bold" fill="#2D3436" dominant-baseline="central">口コミ</text>
  <text x="1268.8999999999999" y="448.2" text-anchor="middle" font-size="14px"  fill="#2D3436" dominant-baseline="central">レビュー</text>
  <text x="1268.8999999999999" y="470.2" text-anchor="middle" font-size="14px"  fill="#2D3436" dominant-baseline="central">紹介</text>
  <rect x="60" y="557.2" width="1259.5" height="50" rx="8" fill="#E8F8F5" stroke="#00B894" stroke-width="2"/>
  <text x="689.75" y="582.2" text-anchor="middle" font-size="14px"  fill="#2D3436" dominant-baseline="central">✦ トリプルメディアの分類に基づくチャネル体系</text>
</svg>