<?xml version="1.0" encoding="UTF-8"?>
<svg xmlns="http://www.w3.org/2000/svg"
     viewBox="0 0 900 650"
     width="900" height="650"
     role="img" aria-labelledby="diagram-title diagram-desc"
     style="font-family: 'Noto Sans CJK JP', 'Hiragino Sans', 'Yu Gothic', 'sans-serif';">
  <title id="diagram-title">概念地図</title>
  <desc id="diagram-desc">DXの構成要素と関係性</desc>
  <defs>
    <filter id="shadow" x="-5%" y="-5%" width="115%" height="115%">
      <feDropShadow dx="2" dy="2" stdDeviation="3" flood-color="#D5D8DC" flood-opacity="0.4"/>
    </filter>
    <marker id="arrowhead" markerWidth="10" markerHeight="10"
            refX="8" refY="5" orient="auto-start-reverse">
      <polygon points="0 0, 10 5, 0 10" fill="#636E72"/>
    </marker>
  </defs>
  <rect width="900" height="650" fill="#F5F7FA" rx="0"/>
  <text x="450.0" y="45" text-anchor="middle" font-size="28px" font-weight="bold" fill="#2D3436" dominant-baseline="central">DX推進 概念地図</text>
  <text x="450.0" y="72" text-anchor="middle" font-size="18px"  fill="#636E72" dominant-baseline="central">概念間の距離と関係性で意味を表現</text>
  <line x1="450" y1="200" x2="200" y2="180" stroke="#D5D8DC" stroke-width="1.5"/>
  <text x="325.0" y="184.0" text-anchor="middle" font-size="10px" fill="#95A5A6">活用</text>
  <line x1="450" y1="200" x2="700" y2="180" stroke="#D5D8DC" stroke-width="1.5"/>
  <text x="575.0" y="184.0" text-anchor="middle" font-size="10px" fill="#95A5A6">推進</text>
  <line x1="200" y1="180" x2="300" y2="350" stroke="#D5D8DC" stroke-width="1.5"/>
  <text x="250.0" y="259.0" text-anchor="middle" font-size="10px" fill="#95A5A6">技術</text>
  <line x1="700" y1="180" x2="600" y2="350" stroke="#D5D8DC" stroke-width="1.5"/>
  <text x="650.0" y="259.0" text-anchor="middle" font-size="10px" fill="#95A5A6">手段</text>
  <line x1="200" y1="180" x2="150" y2="400" stroke="#D5D8DC" stroke-width="1.5"/>
  <text x="175.0" y="284.0" text-anchor="middle" font-size="10px" fill="#95A5A6">基盤</text>
  <line x1="300" y1="350" x2="450" y2="450" stroke="#D5D8DC" stroke-width="1.5"/>
  <text x="375.0" y="394.0" text-anchor="middle" font-size="10px" fill="#95A5A6">実行環境</text>
  <line x1="600" y1="350" x2="450" y2="450" stroke="#D5D8DC" stroke-width="1.5"/>
  <text x="525.0" y="394.0" text-anchor="middle" font-size="10px" fill="#95A5A6">基盤</text>
  <line x1="700" y1="180" x2="750" y2="400" stroke="#D5D8DC" stroke-width="1.5"/>
  <text x="725.0" y="284.0" text-anchor="middle" font-size="10px" fill="#95A5A6">手法</text>
  <line x1="150" y1="400" x2="350" y2="520" stroke="#D5D8DC" stroke-width="1.5"/>
  <text x="250.0" y="454.0" text-anchor="middle" font-size="10px" fill="#95A5A6">要件</text>
  <line x1="450" y1="450" x2="350" y2="520" stroke="#D5D8DC" stroke-width="1.5"/>
  <text x="400.0" y="479.0" text-anchor="middle" font-size="10px" fill="#95A5A6">要件</text>
  <line x1="600" y1="350" x2="600" y2="520" stroke="#D5D8DC" stroke-width="1.5"/>
  <text x="600.0" y="429.0" text-anchor="middle" font-size="10px" fill="#95A5A6">必要</text>
  <line x1="750" y1="400" x2="600" y2="520" stroke="#D5D8DC" stroke-width="1.5"/>
  <text x="675.0" y="454.0" text-anchor="middle" font-size="10px" fill="#95A5A6">必要</text>
  <circle cx="450" cy="200" r="50" fill="#2D3436" opacity="0.15" stroke="#2D3436" stroke-width="2"/>
  <text x="450" y="200" text-anchor="middle" dominant-baseline="central" font-size="12px" font-weight="bold" fill="#2D3436">DX推進</text>
  <circle cx="200" cy="180" r="38" fill="#74B9FF" opacity="0.15" stroke="#74B9FF" stroke-width="2"/>
  <text x="200" y="180" text-anchor="middle" dominant-baseline="central" font-size="12px" font-weight="bold" fill="#2D3436">データ活用</text>
  <circle cx="700" cy="180" r="38" fill="#00B894" opacity="0.15" stroke="#00B894" stroke-width="2"/>
  <text x="700" y="180" text-anchor="middle" dominant-baseline="central" font-size="12px" font-weight="bold" fill="#2D3436">プロセス改革</text>
  <circle cx="300" cy="350" r="32" fill="#A29BFE" opacity="0.15" stroke="#A29BFE" stroke-width="2"/>
  <text x="300" y="350" text-anchor="middle" dominant-baseline="central" font-size="12px" font-weight="bold" fill="#2D3436">AI/ML</text>
  <circle cx="600" cy="350" r="32" fill="#FDCB6E" opacity="0.15" stroke="#FDCB6E" stroke-width="2"/>
  <text x="600" y="350" text-anchor="middle" dominant-baseline="central" font-size="12px" font-weight="bold" fill="#2D3436">自動化</text>
  <circle cx="150" cy="400" r="28" fill="#74B9FF" opacity="0.15" stroke="#74B9FF" stroke-width="2"/>
  <text x="150" y="400" text-anchor="middle" dominant-baseline="central" font-size="12px" font-weight="bold" fill="#2D3436">データ基盤</text>
  <circle cx="450" cy="450" r="30" fill="#FF7675" opacity="0.15" stroke="#FF7675" stroke-width="2"/>
  <text x="450" y="450" text-anchor="middle" dominant-baseline="central" font-size="12px" font-weight="bold" fill="#2D3436">クラウド</text>
  <circle cx="750" cy="400" r="28" fill="#00B894" opacity="0.15" stroke="#00B894" stroke-width="2"/>
  <text x="750" y="400" text-anchor="middle" dominant-baseline="central" font-size="12px" font-weight="bold" fill="#2D3436">アジャイル</text>
  <circle cx="350" cy="520" r="26" fill="#FD79A8" opacity="0.15" stroke="#FD79A8" stroke-width="2"/>
  <text x="350" y="520" text-anchor="middle" dominant-baseline="central" font-size="12px" font-weight="bold" fill="#2D3436">セキュリティ</text>
  <circle cx="600" cy="520" r="28" fill="#FDCB6E" opacity="0.15" stroke="#FDCB6E" stroke-width="2"/>
  <text x="600" y="520" text-anchor="middle" dominant-baseline="central" font-size="12px" font-weight="bold" fill="#2D3436">人材育成</text>
  <rect x="60" y="585" width="780" height="50" rx="8" fill="#E8F8F5" stroke="#00B894" stroke-width="2"/>
  <text x="450.0" y="610.0" text-anchor="middle" font-size="14px"  fill="#2D3436" dominant-baseline="central">✦ 近い概念ほど関連性が強い。中心がコア概念</text>
</svg>